<svg xmlns="http://www.w3.org/2000/svg" xmlns:xlink="http://www.w3.org/1999/xlink" width="500" zoomAndPan="magnify" viewBox="0 0 375 374.999991" height="500" preserveAspectRatio="xMidYMid meet" version="1.0"><defs><g/><clipPath id="3c4ce534f9"><path d="M 236 98 L 299 98 L 299 135 L 236 135 Z M 236 98 " clip-rule="nonzero"/></clipPath><clipPath id="e310b8722b"><path d="M 236.738281 97.316406 L 300.003906 109.859375 L 294.023438 140.023438 L 230.757812 127.480469 Z M 236.738281 97.316406 " clip-rule="nonzero"/></clipPath><clipPath id="2ec21b0de4"><path d="M 236.738281 97.316406 L 300.003906 109.859375 L 294.023438 140.023438 L 230.757812 127.480469 Z M 236.738281 97.316406 " clip-rule="nonzero"/></clipPath><clipPath id="3ae3ea60b9"><path d="M 256.324219 92.695312 L 265.570312 92.695312 L 265.570312 101.941406 L 256.324219 101.941406 Z M 256.324219 92.695312 " clip-rule="nonzero"/></clipPath><clipPath id="bb2316747f"><path d="M 260.949219 92.695312 C 258.394531 92.695312 256.324219 94.761719 256.324219 97.316406 C 256.324219 99.871094 258.394531 101.941406 260.949219 101.941406 C 263.503906 101.941406 265.570312 99.871094 265.570312 97.316406 C 265.570312 94.761719 263.503906 92.695312 260.949219 92.695312 Z M 260.949219 92.695312 " clip-rule="nonzero"/></clipPath><clipPath id="e50b4ee281"><path d="M 275.261719 97.316406 L 284.507812 97.316406 L 284.507812 106.5625 L 275.261719 106.5625 Z M 275.261719 97.316406 " clip-rule="nonzero"/></clipPath><clipPath id="1ab3c2e305"><path d="M 279.882812 97.316406 C 277.332031 97.316406 275.261719 99.386719 275.261719 101.941406 C 275.261719 104.492188 277.332031 106.5625 279.882812 106.5625 C 282.4375 106.5625 284.507812 104.492188 284.507812 101.941406 C 284.507812 99.386719 282.4375 97.316406 279.882812 97.316406 Z M 279.882812 97.316406 " clip-rule="nonzero"/></clipPath></defs><g fill="#754cff" fill-opacity="1"><g transform="translate(74.155224, 208.591163)"><g><path d="M 19.734375 -26.328125 L 19.734375 0 L 4.78125 0 L 4.78125 -65.640625 L 19.734375 -65.640625 L 19.734375 -39.46875 L 40.890625 -39.46875 L 40.890625 -65.640625 L 55.859375 -65.640625 L 55.859375 0 L 40.890625 0 L 40.890625 -26.328125 Z M 19.734375 -26.328125 "/></g></g></g><g fill="#754cff" fill-opacity="1"><g transform="translate(133.82426, 208.591163)"><g><path d="M 1.828125 -32.859375 C 1.828125 -42.347656 5.0625 -50.378906 11.53125 -56.953125 C 18.007812 -63.535156 25.804688 -66.828125 34.921875 -66.828125 C 44.097656 -66.828125 51.894531 -63.550781 58.3125 -57 C 64.738281 -50.457031 67.953125 -42.410156 67.953125 -32.859375 C 67.953125 -23.253906 64.796875 -15.175781 58.484375 -8.625 C 52.171875 -2.082031 44.316406 1.1875 34.921875 1.1875 C 25.328125 1.1875 17.410156 -2.054688 11.171875 -8.546875 C 4.941406 -15.046875 1.828125 -23.148438 1.828125 -32.859375 Z M 17.984375 -32.859375 C 17.984375 -29.410156 18.507812 -26.265625 19.5625 -23.421875 C 20.625 -20.585938 22.484375 -18.1875 25.140625 -16.21875 C 27.796875 -14.257812 31.054688 -13.28125 34.921875 -13.28125 C 40.492188 -13.28125 44.695312 -15.191406 47.53125 -19.015625 C 50.375 -22.835938 51.796875 -27.453125 51.796875 -32.859375 C 51.796875 -38.210938 50.347656 -42.8125 47.453125 -46.65625 C 44.566406 -50.507812 40.390625 -52.4375 34.921875 -52.4375 C 29.515625 -52.4375 25.335938 -50.507812 22.390625 -46.65625 C 19.453125 -42.8125 17.984375 -38.210938 17.984375 -32.859375 Z M 17.984375 -32.859375 "/></g></g></g><g fill="#754cff" fill-opacity="1"><g transform="translate(202.642564, 208.591163)"><g><path d="M 4.78125 -65.640625 L 28.71875 -65.640625 C 35.40625 -65.640625 40.816406 -63.914062 44.953125 -60.46875 C 49.085938 -57.019531 51.15625 -52.003906 51.15625 -45.421875 C 51.15625 -38.847656 49.0625 -33.691406 44.875 -29.953125 C 40.6875 -26.210938 35.300781 -24.34375 28.71875 -24.34375 L 19.734375 -24.34375 L 19.734375 0 L 4.78125 0 Z M 19.734375 -36.28125 L 23.953125 -36.28125 C 27.285156 -36.28125 30.023438 -36.957031 32.171875 -38.3125 C 34.328125 -39.664062 35.40625 -41.878906 35.40625 -44.953125 C 35.40625 -48.078125 34.328125 -50.316406 32.171875 -51.671875 C 30.023438 -53.023438 27.285156 -53.703125 23.953125 -53.703125 L 19.734375 -53.703125 Z M 19.734375 -36.28125 "/></g></g></g><g fill="#754cff" fill-opacity="1"><g transform="translate(254.673941, 208.591163)"><g><path d="M 42.328125 -65.640625 L 42.328125 -52.515625 L 19.734375 -52.515625 L 19.734375 -39.46875 L 41.375 -39.46875 L 41.375 -26.328125 L 19.734375 -26.328125 L 19.734375 -13.125 L 42.328125 -13.125 L 42.328125 0 L 4.78125 0 L 4.78125 -65.640625 Z M 42.328125 -65.640625 "/></g></g></g><g fill="#754cff" fill-opacity="1"><g transform="translate(81.266448, 229.712815)"><g><path d="M 8.5625 -11.125 C 8.882812 -11.03125 9.132812 -10.863281 9.3125 -10.625 C 9.5 -10.394531 9.578125 -10.132812 9.546875 -9.84375 C 9.515625 -9.539062 9.390625 -9.285156 9.171875 -9.078125 C 8.960938 -8.867188 8.691406 -8.753906 8.359375 -8.734375 C 8.191406 -8.722656 8.023438 -8.71875 7.859375 -8.71875 C 7.703125 -8.71875 7.546875 -8.71875 7.390625 -8.71875 C 7.304688 -8.71875 7.226562 -8.71875 7.15625 -8.71875 C 7.082031 -8.71875 7.003906 -8.71875 6.921875 -8.71875 L 5.53125 -8.71875 L 5.5625 -8.53125 C 5.582031 -8.34375 5.609375 -8.15625 5.640625 -7.96875 C 5.671875 -7.789062 5.695312 -7.613281 5.71875 -7.4375 C 5.769531 -7.03125 5.820312 -6.632812 5.875 -6.25 C 5.925781 -5.863281 5.972656 -5.476562 6.015625 -5.09375 C 6.066406 -4.664062 6.113281 -4.210938 6.15625 -3.734375 C 6.195312 -3.253906 6.226562 -2.765625 6.25 -2.265625 C 6.257812 -1.898438 6.191406 -1.519531 6.046875 -1.125 C 5.835938 -0.613281 5.457031 -0.351562 4.90625 -0.34375 C 4.34375 -0.351562 3.96875 -0.609375 3.78125 -1.109375 C 3.59375 -1.585938 3.5 -2.0625 3.5 -2.53125 C 3.5 -3.195312 3.503906 -3.859375 3.515625 -4.515625 C 3.523438 -5.179688 3.539062 -5.84375 3.5625 -6.5 C 3.5625 -6.757812 3.5625 -7.019531 3.5625 -7.28125 C 3.570312 -7.539062 3.582031 -7.804688 3.59375 -8.078125 C 3.59375 -8.117188 3.585938 -8.191406 3.578125 -8.296875 L 3.5625 -8.546875 L 3.0625 -8.59375 C 2.894531 -8.613281 2.722656 -8.628906 2.546875 -8.640625 C 2.378906 -8.660156 2.210938 -8.679688 2.046875 -8.703125 C 1.953125 -8.710938 1.863281 -8.722656 1.78125 -8.734375 C 1.707031 -8.742188 1.632812 -8.757812 1.5625 -8.78125 C 0.914062 -8.925781 0.582031 -9.257812 0.5625 -9.78125 C 0.539062 -10.3125 0.863281 -10.671875 1.53125 -10.859375 L 1.578125 -10.859375 C 1.597656 -10.878906 1.613281 -10.890625 1.625 -10.890625 C 1.945312 -10.910156 2.269531 -10.9375 2.59375 -10.96875 C 2.914062 -11 3.234375 -11.035156 3.546875 -11.078125 C 4.066406 -11.128906 4.582031 -11.175781 5.09375 -11.21875 C 5.613281 -11.269531 6.128906 -11.296875 6.640625 -11.296875 C 6.910156 -11.296875 7.171875 -11.285156 7.421875 -11.265625 C 7.679688 -11.253906 7.941406 -11.234375 8.203125 -11.203125 C 8.335938 -11.179688 8.457031 -11.15625 8.5625 -11.125 Z M 8.5625 -11.125 "/></g></g></g><g fill="#754cff" fill-opacity="1"><g transform="translate(91.211789, 229.712815)"><g><path d="M 6.4375 -11.25 C 7.113281 -11.09375 7.734375 -10.894531 8.296875 -10.65625 C 8.859375 -10.414062 9.34375 -10.097656 9.75 -9.703125 C 10.164062 -9.316406 10.5 -8.828125 10.75 -8.234375 C 11 -7.648438 11.148438 -6.9375 11.203125 -6.09375 C 11.078125 -4.738281 10.6875 -3.664062 10.03125 -2.875 C 9.90625 -2.726562 9.78125 -2.582031 9.65625 -2.4375 C 9.53125 -2.289062 9.40625 -2.148438 9.28125 -2.015625 L 8.984375 -1.65625 C 8.023438 -0.53125 6.765625 -0.0625 5.203125 -0.25 C 5.085938 -0.257812 4.972656 -0.273438 4.859375 -0.296875 C 4.753906 -0.316406 4.644531 -0.335938 4.53125 -0.359375 L 4.46875 -0.375 C 3.019531 -0.675781 1.953125 -1.429688 1.265625 -2.640625 C 0.878906 -3.304688 0.648438 -4.050781 0.578125 -4.875 C 0.503906 -5.707031 0.59375 -6.484375 0.84375 -7.203125 C 1.664062 -9.578125 3.234375 -10.914062 5.546875 -11.21875 L 5.71875 -11.234375 C 5.789062 -11.242188 5.867188 -11.253906 5.953125 -11.265625 C 6.035156 -11.273438 6.113281 -11.28125 6.1875 -11.28125 C 6.28125 -11.28125 6.363281 -11.269531 6.4375 -11.25 Z M 8.46875 -5.84375 L 8.46875 -5.9375 C 8.40625 -6.476562 8.265625 -6.894531 8.046875 -7.1875 C 7.828125 -7.488281 7.484375 -7.738281 7.015625 -7.9375 C 6.578125 -8.113281 6.195312 -8.285156 5.875 -8.453125 C 5.445312 -8.671875 5.078125 -8.738281 4.765625 -8.65625 C 4.453125 -8.582031 4.160156 -8.351562 3.890625 -7.96875 C 3.078125 -6.75 2.878906 -5.5625 3.296875 -4.40625 C 3.429688 -4.03125 3.648438 -3.707031 3.953125 -3.4375 C 4.265625 -3.175781 4.625 -3.007812 5.03125 -2.9375 C 5.175781 -2.90625 5.320312 -2.890625 5.46875 -2.890625 C 6.113281 -2.890625 6.648438 -3.128906 7.078125 -3.609375 C 7.109375 -3.648438 7.140625 -3.6875 7.171875 -3.71875 C 7.210938 -3.757812 7.25 -3.796875 7.28125 -3.828125 C 7.375 -3.921875 7.460938 -4.015625 7.546875 -4.109375 C 7.628906 -4.210938 7.707031 -4.316406 7.78125 -4.421875 C 7.875 -4.585938 7.957031 -4.753906 8.03125 -4.921875 C 8.113281 -5.085938 8.191406 -5.253906 8.265625 -5.421875 C 8.296875 -5.492188 8.328125 -5.5625 8.359375 -5.625 C 8.390625 -5.695312 8.425781 -5.769531 8.46875 -5.84375 Z M 8.46875 -5.84375 "/></g></g></g><g fill="#754cff" fill-opacity="1"><g transform="translate(102.804616, 229.712815)"><g><path d="M 11.3125 -10.8125 C 11.375 -10.507812 11.40625 -10.1875 11.40625 -9.84375 L 11.375 -8.609375 C 11.351562 -7.648438 11.332031 -6.679688 11.3125 -5.703125 C 11.289062 -4.722656 11.257812 -3.742188 11.21875 -2.765625 C 11.195312 -1.710938 10.890625 -1.023438 10.296875 -0.703125 C 9.734375 -0.390625 9.007812 -0.488281 8.125 -1 C 7.675781 -1.257812 7.257812 -1.570312 6.875 -1.9375 C 6.5 -2.3125 6.191406 -2.644531 5.953125 -2.9375 C 5.648438 -3.269531 5.363281 -3.625 5.09375 -4 C 4.820312 -4.382812 4.554688 -4.765625 4.296875 -5.140625 C 4.179688 -5.285156 4.070312 -5.429688 3.96875 -5.578125 C 3.863281 -5.734375 3.753906 -5.890625 3.640625 -6.046875 L 3.578125 -6.15625 C 3.515625 -6.226562 3.445312 -6.304688 3.375 -6.390625 C 3.3125 -6.484375 3.222656 -6.566406 3.109375 -6.640625 L 2.859375 -6.84375 L 2.859375 -6.359375 C 2.859375 -6.296875 2.859375 -6.238281 2.859375 -6.1875 C 2.859375 -6.132812 2.859375 -6.078125 2.859375 -6.015625 L 2.8125 -5.03125 C 2.789062 -4.40625 2.769531 -3.769531 2.75 -3.125 C 2.726562 -2.488281 2.703125 -1.859375 2.671875 -1.234375 C 2.660156 -1.003906 2.597656 -0.773438 2.484375 -0.546875 C 2.328125 -0.234375 2.113281 -0.0703125 1.84375 -0.0625 C 1.582031 -0.0390625 1.363281 -0.175781 1.1875 -0.46875 C 1.03125 -0.707031 0.941406 -0.941406 0.921875 -1.171875 C 0.734375 -2.753906 0.617188 -4.210938 0.578125 -5.546875 C 0.535156 -6.878906 0.570312 -8.15625 0.6875 -9.375 C 0.6875 -9.582031 0.738281 -9.800781 0.84375 -10.03125 C 1.007812 -10.445312 1.273438 -10.71875 1.640625 -10.84375 C 1.785156 -10.882812 1.925781 -10.90625 2.0625 -10.90625 C 2.300781 -10.90625 2.53125 -10.84375 2.75 -10.71875 C 3.070312 -10.53125 3.34375 -10.296875 3.5625 -10.015625 C 3.8125 -9.691406 4.0625 -9.363281 4.3125 -9.03125 C 4.570312 -8.695312 4.820312 -8.367188 5.0625 -8.046875 C 5.195312 -7.867188 5.332031 -7.6875 5.46875 -7.5 C 5.613281 -7.320312 5.753906 -7.144531 5.890625 -6.96875 C 6.128906 -6.644531 6.367188 -6.328125 6.609375 -6.015625 C 6.859375 -5.703125 7.101562 -5.382812 7.34375 -5.0625 L 8.078125 -4.109375 L 8.46875 -4.265625 L 8.484375 -4.53125 C 8.492188 -4.59375 8.5 -4.65625 8.5 -4.71875 C 8.5 -4.78125 8.503906 -4.835938 8.515625 -4.890625 C 8.515625 -5.128906 8.519531 -5.363281 8.53125 -5.59375 C 8.539062 -5.820312 8.546875 -6.050781 8.546875 -6.28125 C 8.566406 -6.851562 8.585938 -7.429688 8.609375 -8.015625 C 8.628906 -8.609375 8.648438 -9.195312 8.671875 -9.78125 C 8.703125 -10.21875 8.796875 -10.648438 8.953125 -11.078125 C 9.066406 -11.347656 9.242188 -11.550781 9.484375 -11.6875 C 9.722656 -11.832031 9.984375 -11.890625 10.265625 -11.859375 C 10.523438 -11.828125 10.75 -11.710938 10.9375 -11.515625 C 11.132812 -11.328125 11.257812 -11.09375 11.3125 -10.8125 Z M 11.3125 -10.8125 "/></g></g></g><g fill="#754cff" fill-opacity="1"><g transform="translate(114.609046, 229.712815)"><g/></g></g><g fill="#754cff" fill-opacity="1"><g transform="translate(118.765542, 229.712815)"><g><path d="M 11.5625 -2.484375 C 11.570312 -2.410156 11.585938 -2.34375 11.609375 -2.28125 C 11.597656 -1.90625 11.515625 -1.59375 11.359375 -1.34375 C 11.203125 -1.09375 10.984375 -0.925781 10.703125 -0.84375 C 10.421875 -0.75 10.144531 -0.757812 9.875 -0.875 C 9.613281 -0.988281 9.40625 -1.175781 9.25 -1.4375 C 9.070312 -1.726562 8.925781 -2.085938 8.8125 -2.515625 C 8.769531 -2.679688 8.695312 -2.828125 8.59375 -2.953125 C 8.5 -3.085938 8.316406 -3.160156 8.046875 -3.171875 C 7.753906 -3.179688 7.460938 -3.191406 7.171875 -3.203125 C 6.878906 -3.210938 6.585938 -3.222656 6.296875 -3.234375 C 5.910156 -3.253906 5.519531 -3.269531 5.125 -3.28125 C 4.738281 -3.300781 4.347656 -3.316406 3.953125 -3.328125 C 3.859375 -3.328125 3.75 -3.28125 3.625 -3.1875 C 3.5 -3.101562 3.410156 -3.019531 3.359375 -2.9375 C 3.273438 -2.789062 3.191406 -2.644531 3.109375 -2.5 C 3.035156 -2.351562 2.96875 -2.207031 2.90625 -2.0625 C 2.832031 -1.925781 2.753906 -1.78125 2.671875 -1.625 C 2.597656 -1.476562 2.519531 -1.332031 2.4375 -1.1875 C 2.082031 -0.570312 1.648438 -0.378906 1.140625 -0.609375 C 0.941406 -0.679688 0.78125 -0.835938 0.65625 -1.078125 C 0.53125 -1.328125 0.519531 -1.613281 0.625 -1.9375 C 0.96875 -3.03125 1.421875 -4.273438 1.984375 -5.671875 C 2.335938 -6.554688 2.78125 -7.550781 3.3125 -8.65625 C 3.457031 -8.96875 3.625 -9.296875 3.8125 -9.640625 C 4 -9.992188 4.203125 -10.335938 4.421875 -10.671875 C 4.660156 -11.003906 5 -11.296875 5.4375 -11.546875 C 5.769531 -11.742188 6.085938 -11.84375 6.390625 -11.84375 C 6.921875 -11.84375 7.363281 -11.546875 7.71875 -10.953125 C 8.414062 -9.765625 9.097656 -8.523438 9.765625 -7.234375 C 10.429688 -5.953125 10.96875 -4.601562 11.375 -3.1875 C 11.414062 -3.050781 11.453125 -2.921875 11.484375 -2.796875 C 11.515625 -2.679688 11.539062 -2.578125 11.5625 -2.484375 Z M 4.84375 -5.875 L 7.671875 -5.875 L 6.0625 -9.1875 Z M 4.84375 -5.875 "/></g></g></g><g fill="#754cff" fill-opacity="1"><g transform="translate(130.751338, 229.712815)"><g><path d="M 7.25 -2.21875 C 7.382812 -1.882812 7.332031 -1.539062 7.09375 -1.1875 C 7.070312 -1.15625 7.046875 -1.125 7.015625 -1.09375 C 6.992188 -1.070312 6.972656 -1.050781 6.953125 -1.03125 C 5.367188 0.113281 3.859375 0.441406 2.421875 -0.046875 C 2.003906 -0.179688 1.671875 -0.375 1.421875 -0.625 C 1.171875 -0.875 0.984375 -1.144531 0.859375 -1.4375 C 0.734375 -1.726562 0.648438 -2.015625 0.609375 -2.296875 C 0.578125 -2.578125 0.5625 -2.828125 0.5625 -3.046875 C 0.59375 -3.984375 0.644531 -4.925781 0.71875 -5.875 C 0.789062 -6.832031 0.875 -7.769531 0.96875 -8.6875 L 1.015625 -9.203125 C 1.046875 -9.546875 1.097656 -9.890625 1.171875 -10.234375 C 1.242188 -10.578125 1.335938 -10.941406 1.453125 -11.328125 C 1.597656 -11.910156 1.90625 -12.203125 2.375 -12.203125 C 2.40625 -12.203125 2.429688 -12.203125 2.453125 -12.203125 C 2.703125 -12.179688 2.90625 -12.082031 3.0625 -11.90625 C 3.21875 -11.726562 3.304688 -11.492188 3.328125 -11.203125 C 3.367188 -10.703125 3.394531 -10.203125 3.40625 -9.703125 C 3.425781 -9.210938 3.441406 -8.75 3.453125 -8.3125 C 3.453125 -8.125 3.453125 -7.945312 3.453125 -7.78125 C 3.460938 -7.625 3.472656 -7.472656 3.484375 -7.328125 C 3.484375 -7.109375 3.484375 -6.890625 3.484375 -6.671875 C 3.484375 -6.460938 3.484375 -6.257812 3.484375 -6.0625 C 3.484375 -5.601562 3.484375 -5.160156 3.484375 -4.734375 C 3.484375 -4.304688 3.484375 -3.882812 3.484375 -3.46875 C 3.492188 -3.300781 3.507812 -3.160156 3.53125 -3.046875 C 3.550781 -2.941406 3.601562 -2.859375 3.6875 -2.796875 C 3.769531 -2.710938 3.875 -2.664062 4 -2.65625 C 4.125 -2.65625 4.257812 -2.664062 4.40625 -2.6875 C 4.519531 -2.695312 4.628906 -2.707031 4.734375 -2.71875 C 4.835938 -2.738281 4.945312 -2.753906 5.0625 -2.765625 C 5.175781 -2.785156 5.289062 -2.800781 5.40625 -2.8125 C 5.519531 -2.832031 5.628906 -2.847656 5.734375 -2.859375 C 6.035156 -2.878906 6.285156 -2.867188 6.484375 -2.828125 C 6.878906 -2.734375 7.132812 -2.53125 7.25 -2.21875 Z M 7.25 -2.21875 "/></g></g></g><g fill="#754cff" fill-opacity="1"><g transform="translate(138.444621, 229.712815)"><g><path d="M 7.25 -2.21875 C 7.382812 -1.882812 7.332031 -1.539062 7.09375 -1.1875 C 7.070312 -1.15625 7.046875 -1.125 7.015625 -1.09375 C 6.992188 -1.070312 6.972656 -1.050781 6.953125 -1.03125 C 5.367188 0.113281 3.859375 0.441406 2.421875 -0.046875 C 2.003906 -0.179688 1.671875 -0.375 1.421875 -0.625 C 1.171875 -0.875 0.984375 -1.144531 0.859375 -1.4375 C 0.734375 -1.726562 0.648438 -2.015625 0.609375 -2.296875 C 0.578125 -2.578125 0.5625 -2.828125 0.5625 -3.046875 C 0.59375 -3.984375 0.644531 -4.925781 0.71875 -5.875 C 0.789062 -6.832031 0.875 -7.769531 0.96875 -8.6875 L 1.015625 -9.203125 C 1.046875 -9.546875 1.097656 -9.890625 1.171875 -10.234375 C 1.242188 -10.578125 1.335938 -10.941406 1.453125 -11.328125 C 1.597656 -11.910156 1.90625 -12.203125 2.375 -12.203125 C 2.40625 -12.203125 2.429688 -12.203125 2.453125 -12.203125 C 2.703125 -12.179688 2.90625 -12.082031 3.0625 -11.90625 C 3.21875 -11.726562 3.304688 -11.492188 3.328125 -11.203125 C 3.367188 -10.703125 3.394531 -10.203125 3.40625 -9.703125 C 3.425781 -9.210938 3.441406 -8.75 3.453125 -8.3125 C 3.453125 -8.125 3.453125 -7.945312 3.453125 -7.78125 C 3.460938 -7.625 3.472656 -7.472656 3.484375 -7.328125 C 3.484375 -7.109375 3.484375 -6.890625 3.484375 -6.671875 C 3.484375 -6.460938 3.484375 -6.257812 3.484375 -6.0625 C 3.484375 -5.601562 3.484375 -5.160156 3.484375 -4.734375 C 3.484375 -4.304688 3.484375 -3.882812 3.484375 -3.46875 C 3.492188 -3.300781 3.507812 -3.160156 3.53125 -3.046875 C 3.550781 -2.941406 3.601562 -2.859375 3.6875 -2.796875 C 3.769531 -2.710938 3.875 -2.664062 4 -2.65625 C 4.125 -2.65625 4.257812 -2.664062 4.40625 -2.6875 C 4.519531 -2.695312 4.628906 -2.707031 4.734375 -2.71875 C 4.835938 -2.738281 4.945312 -2.753906 5.0625 -2.765625 C 5.175781 -2.785156 5.289062 -2.800781 5.40625 -2.8125 C 5.519531 -2.832031 5.628906 -2.847656 5.734375 -2.859375 C 6.035156 -2.878906 6.285156 -2.867188 6.484375 -2.828125 C 6.878906 -2.734375 7.132812 -2.53125 7.25 -2.21875 Z M 7.25 -2.21875 "/></g></g></g><g fill="#754cff" fill-opacity="1"><g transform="translate(146.137903, 229.712815)"><g><path d="M 3.59375 -8.953125 C 3.664062 -7.890625 3.65625 -6.820312 3.5625 -5.75 C 3.476562 -4.675781 3.378906 -3.617188 3.265625 -2.578125 L 3.171875 -1.671875 C 3.140625 -1.460938 3.0625 -1.238281 2.9375 -1 C 2.6875 -0.582031 2.363281 -0.375 1.96875 -0.375 C 1.59375 -0.375 1.300781 -0.566406 1.09375 -0.953125 C 0.820312 -1.421875 0.675781 -1.945312 0.65625 -2.53125 C 0.625 -2.925781 0.609375 -3.328125 0.609375 -3.734375 C 0.609375 -4.140625 0.613281 -4.535156 0.625 -4.921875 C 0.625 -5.085938 0.625 -5.253906 0.625 -5.421875 C 0.625 -5.585938 0.625 -5.753906 0.625 -5.921875 L 0.625 -6.09375 L 0.5625 -6.09375 C 0.570312 -6.207031 0.578125 -6.328125 0.578125 -6.453125 C 0.585938 -6.578125 0.59375 -6.703125 0.59375 -6.828125 C 0.613281 -7.203125 0.632812 -7.578125 0.65625 -7.953125 C 0.675781 -8.328125 0.695312 -8.707031 0.71875 -9.09375 C 0.757812 -9.570312 0.847656 -10.007812 0.984375 -10.40625 C 1.085938 -10.675781 1.242188 -10.890625 1.453125 -11.046875 C 1.671875 -11.203125 1.914062 -11.273438 2.1875 -11.265625 C 2.78125 -11.234375 3.164062 -10.941406 3.34375 -10.390625 C 3.46875 -9.984375 3.550781 -9.503906 3.59375 -8.953125 Z M 3.59375 -8.953125 "/></g></g></g><g fill="#754cff" fill-opacity="1"><g transform="translate(150.173474, 229.712815)"><g><path d="M 6.859375 -3.109375 C 7.117188 -3.128906 7.359375 -3.085938 7.578125 -2.984375 C 7.804688 -2.890625 7.984375 -2.710938 8.109375 -2.453125 C 8.234375 -2.191406 8.257812 -1.941406 8.1875 -1.703125 C 8.125 -1.472656 8.003906 -1.265625 7.828125 -1.078125 C 7.585938 -0.816406 7.3125 -0.609375 7 -0.453125 C 6.3125 -0.109375 5.601562 0.09375 4.875 0.15625 C 4.144531 0.226562 3.40625 0.191406 2.65625 0.046875 C 2.15625 -0.0546875 1.75 -0.269531 1.4375 -0.59375 C 1.132812 -0.925781 0.914062 -1.332031 0.78125 -1.8125 C 0.613281 -2.4375 0.539062 -3.054688 0.5625 -3.671875 C 0.59375 -4.296875 0.644531 -4.921875 0.71875 -5.546875 C 0.820312 -6.222656 0.9375 -6.898438 1.0625 -7.578125 C 1.1875 -8.253906 1.304688 -8.9375 1.421875 -9.625 C 1.429688 -9.6875 1.441406 -9.75 1.453125 -9.8125 C 1.472656 -9.882812 1.472656 -9.953125 1.453125 -10.015625 C 1.378906 -10.378906 1.421875 -10.675781 1.578125 -10.90625 C 1.742188 -11.144531 1.972656 -11.347656 2.265625 -11.515625 C 2.390625 -11.578125 2.515625 -11.632812 2.640625 -11.6875 C 2.765625 -11.738281 2.882812 -11.773438 3 -11.796875 C 3.59375 -11.878906 4.179688 -11.957031 4.765625 -12.03125 C 5.347656 -12.113281 5.9375 -12.171875 6.53125 -12.203125 C 7.050781 -12.234375 7.484375 -12.109375 7.828125 -11.828125 C 8.171875 -11.546875 8.351562 -11.191406 8.375 -10.765625 C 8.382812 -10.359375 8.226562 -10.007812 7.90625 -9.71875 C 7.582031 -9.425781 7.148438 -9.265625 6.609375 -9.234375 C 6.234375 -9.210938 5.859375 -9.210938 5.484375 -9.234375 C 5.109375 -9.253906 4.734375 -9.269531 4.359375 -9.28125 C 4.117188 -9.289062 3.945312 -9.289062 3.84375 -9.28125 C 3.75 -9.269531 3.691406 -9.210938 3.671875 -9.109375 C 3.648438 -9.015625 3.640625 -8.851562 3.640625 -8.625 C 3.640625 -8.351562 3.640625 -8.078125 3.640625 -7.796875 C 3.640625 -7.515625 3.640625 -7.222656 3.640625 -6.921875 C 3.992188 -6.992188 4.335938 -7.0625 4.671875 -7.125 C 5.003906 -7.1875 5.335938 -7.234375 5.671875 -7.265625 C 5.929688 -7.285156 6.195312 -7.289062 6.46875 -7.28125 C 6.75 -7.269531 7.019531 -7.234375 7.28125 -7.171875 C 7.5 -7.117188 7.6875 -7.015625 7.84375 -6.859375 C 8 -6.703125 8.085938 -6.488281 8.109375 -6.21875 C 8.128906 -5.957031 8.078125 -5.738281 7.953125 -5.5625 C 7.828125 -5.382812 7.660156 -5.242188 7.453125 -5.140625 C 7.285156 -5.054688 7.109375 -4.984375 6.921875 -4.921875 C 6.734375 -4.859375 6.546875 -4.820312 6.359375 -4.8125 C 5.898438 -4.769531 5.429688 -4.738281 4.953125 -4.71875 C 4.472656 -4.707031 3.976562 -4.6875 3.46875 -4.65625 C 3.46875 -4.375 3.460938 -4.085938 3.453125 -3.796875 C 3.453125 -3.515625 3.460938 -3.226562 3.484375 -2.9375 C 3.484375 -2.882812 3.523438 -2.816406 3.609375 -2.734375 C 3.703125 -2.660156 3.78125 -2.628906 3.84375 -2.640625 C 4.15625 -2.660156 4.46875 -2.6875 4.78125 -2.71875 C 5.09375 -2.757812 5.398438 -2.804688 5.703125 -2.859375 C 5.898438 -2.890625 6.09375 -2.9375 6.28125 -3 C 6.476562 -3.0625 6.671875 -3.097656 6.859375 -3.109375 Z M 4.6875 -13.390625 C 4.320312 -13.398438 4.078125 -13.503906 3.953125 -13.703125 C 3.828125 -13.898438 3.835938 -14.140625 3.984375 -14.421875 C 4.171875 -14.742188 4.363281 -15.0625 4.5625 -15.375 C 4.769531 -15.695312 4.984375 -16.015625 5.203125 -16.328125 C 5.347656 -16.546875 5.523438 -16.675781 5.734375 -16.71875 C 5.953125 -16.757812 6.148438 -16.722656 6.328125 -16.609375 C 6.523438 -16.472656 6.640625 -16.300781 6.671875 -16.09375 C 6.703125 -15.882812 6.644531 -15.660156 6.5 -15.421875 C 6.300781 -15.148438 6.109375 -14.875 5.921875 -14.59375 C 5.734375 -14.320312 5.53125 -14.0625 5.3125 -13.8125 C 5.226562 -13.695312 5.117188 -13.609375 4.984375 -13.546875 C 4.859375 -13.492188 4.757812 -13.441406 4.6875 -13.390625 Z M 4.6875 -13.390625 "/></g></g></g><g fill="#754cff" fill-opacity="1"><g transform="translate(158.924779, 229.712815)"><g/></g></g><g fill="#754cff" fill-opacity="1"><g transform="translate(163.08128, 229.712815)"><g><path d="M 8.09375 -3.640625 C 8.28125 -2.921875 8.226562 -2.28125 7.9375 -1.71875 C 7.644531 -1.15625 7.164062 -0.765625 6.5 -0.546875 C 5.75 -0.285156 4.851562 -0.132812 3.8125 -0.09375 C 3.332031 -0.0703125 2.910156 -0.175781 2.546875 -0.40625 C 2.179688 -0.644531 1.882812 -0.890625 1.65625 -1.140625 C 1.414062 -1.410156 1.269531 -1.703125 1.21875 -2.015625 C 1.164062 -2.328125 1.210938 -2.609375 1.359375 -2.859375 C 1.597656 -3.273438 1.992188 -3.484375 2.546875 -3.484375 C 2.703125 -3.484375 2.851562 -3.46875 3 -3.4375 C 3.0625 -3.425781 3.128906 -3.410156 3.203125 -3.390625 C 3.273438 -3.378906 3.34375 -3.363281 3.40625 -3.34375 C 3.675781 -3.257812 3.953125 -3.191406 4.234375 -3.140625 C 4.515625 -3.085938 4.8125 -3.109375 5.125 -3.203125 L 5.625 -3.359375 L 5.546875 -3.515625 C 5.410156 -3.828125 5.222656 -4.054688 4.984375 -4.203125 C 4.742188 -4.347656 4.492188 -4.460938 4.234375 -4.546875 C 3.191406 -4.859375 2.253906 -5.4375 1.421875 -6.28125 C 0.804688 -6.90625 0.519531 -7.609375 0.5625 -8.390625 C 0.601562 -9.148438 0.953125 -9.796875 1.609375 -10.328125 C 2.847656 -11.359375 4.257812 -11.6875 5.84375 -11.3125 C 6.550781 -11.15625 7.078125 -10.800781 7.421875 -10.25 C 7.546875 -10.007812 7.617188 -9.753906 7.640625 -9.484375 C 7.640625 -9.410156 7.628906 -9.320312 7.609375 -9.21875 C 7.585938 -9.113281 7.546875 -9.035156 7.484375 -8.984375 C 7.359375 -8.898438 7.171875 -8.90625 6.921875 -9 C 6.617188 -9.125 6.25 -9.238281 5.8125 -9.34375 C 5.382812 -9.445312 4.925781 -9.445312 4.4375 -9.34375 C 4.207031 -9.289062 3.984375 -9.210938 3.765625 -9.109375 C 3.546875 -9.003906 3.347656 -8.898438 3.171875 -8.796875 C 2.960938 -8.671875 2.859375 -8.515625 2.859375 -8.328125 C 2.859375 -8.128906 2.957031 -7.96875 3.15625 -7.84375 L 3.484375 -7.640625 C 3.753906 -7.484375 4.03125 -7.328125 4.3125 -7.171875 C 4.59375 -7.015625 4.878906 -6.875 5.171875 -6.75 C 6.773438 -6.101562 7.75 -5.066406 8.09375 -3.640625 Z M 8.09375 -3.640625 "/></g></g></g><g fill="#754cff" fill-opacity="1"><g transform="translate(171.666327, 229.712815)"><g><path d="M 9.84375 -10.609375 C 10 -10.203125 10.0625 -9.875 10.03125 -9.625 C 9.769531 -7.582031 9.507812 -5.757812 9.25 -4.15625 C 9.195312 -3.894531 9.117188 -3.628906 9.015625 -3.359375 C 8.910156 -3.097656 8.796875 -2.847656 8.671875 -2.609375 C 8.148438 -1.535156 7.351562 -0.84375 6.28125 -0.53125 C 5.207031 -0.21875 4.148438 -0.382812 3.109375 -1.03125 C 1.535156 -2.007812 0.707031 -3.472656 0.625 -5.421875 C 0.613281 -5.566406 0.609375 -5.707031 0.609375 -5.84375 C 0.617188 -5.988281 0.625 -6.128906 0.625 -6.265625 C 0.625 -6.335938 0.625 -6.40625 0.625 -6.46875 C 0.625 -6.539062 0.625 -6.601562 0.625 -6.65625 L 0.625 -6.828125 L 0.5625 -6.828125 L 0.609375 -7.359375 C 0.640625 -7.734375 0.664062 -8.101562 0.6875 -8.46875 C 0.71875 -8.84375 0.753906 -9.21875 0.796875 -9.59375 C 0.804688 -9.738281 0.84375 -9.90625 0.90625 -10.09375 C 1.0625 -10.539062 1.347656 -10.78125 1.765625 -10.8125 C 1.960938 -10.820312 2.144531 -10.765625 2.3125 -10.640625 C 2.476562 -10.515625 2.59375 -10.34375 2.65625 -10.125 C 2.769531 -9.769531 2.851562 -9.335938 2.90625 -8.828125 C 2.9375 -8.484375 2.960938 -8.140625 2.984375 -7.796875 C 3.015625 -7.453125 3.046875 -7.109375 3.078125 -6.765625 C 3.097656 -6.554688 3.117188 -6.335938 3.140625 -6.109375 C 3.160156 -5.890625 3.179688 -5.671875 3.203125 -5.453125 C 3.296875 -4.460938 3.726562 -3.710938 4.5 -3.203125 C 5.007812 -2.867188 5.46875 -2.78125 5.875 -2.9375 C 6.25 -3.070312 6.503906 -3.390625 6.640625 -3.890625 C 6.785156 -4.390625 6.898438 -4.894531 6.984375 -5.40625 C 7.078125 -5.925781 7.160156 -6.4375 7.234375 -6.9375 L 7.28125 -7.171875 C 7.3125 -7.398438 7.335938 -7.625 7.359375 -7.84375 C 7.378906 -8.070312 7.398438 -8.296875 7.421875 -8.515625 C 7.429688 -8.703125 7.445312 -8.894531 7.46875 -9.09375 C 7.488281 -9.289062 7.507812 -9.476562 7.53125 -9.65625 C 7.570312 -10.039062 7.675781 -10.390625 7.84375 -10.703125 C 8.050781 -11.097656 8.398438 -11.28125 8.890625 -11.25 C 9.347656 -11.226562 9.664062 -11.015625 9.84375 -10.609375 Z M 9.84375 -10.609375 "/></g></g></g><g fill="#754cff" fill-opacity="1"><g transform="translate(182.095335, 229.712815)"><g><path d="M 8.796875 -3.125 C 8.960938 -3.03125 9.117188 -2.910156 9.265625 -2.765625 C 9.421875 -2.628906 9.535156 -2.460938 9.609375 -2.265625 C 9.679688 -2.066406 9.671875 -1.84375 9.578125 -1.59375 C 9.472656 -1.257812 9.265625 -1.007812 8.953125 -0.84375 C 8.640625 -0.6875 8.316406 -0.648438 7.984375 -0.734375 C 7.722656 -0.804688 7.472656 -0.90625 7.234375 -1.03125 C 7.003906 -1.15625 6.773438 -1.285156 6.546875 -1.421875 C 6.234375 -1.597656 5.921875 -1.78125 5.609375 -1.96875 C 5.296875 -2.164062 4.988281 -2.351562 4.6875 -2.53125 C 4.519531 -2.632812 4.359375 -2.734375 4.203125 -2.828125 C 4.046875 -2.921875 3.890625 -3.019531 3.734375 -3.125 C 3.679688 -3.15625 3.628906 -3.179688 3.578125 -3.203125 C 3.523438 -3.234375 3.472656 -3.265625 3.421875 -3.296875 C 3.335938 -3.328125 3.265625 -3.363281 3.203125 -3.40625 L 2.96875 -3.5 L 2.90625 -2.625 C 2.875 -2.40625 2.847656 -2.1875 2.828125 -1.96875 C 2.804688 -1.757812 2.785156 -1.554688 2.765625 -1.359375 C 2.710938 -0.984375 2.585938 -0.695312 2.390625 -0.5 C 2.203125 -0.300781 1.960938 -0.207031 1.671875 -0.21875 C 1.378906 -0.226562 1.140625 -0.335938 0.953125 -0.546875 C 0.773438 -0.753906 0.671875 -1.039062 0.640625 -1.40625 C 0.429688 -4.09375 0.628906 -7.023438 1.234375 -10.203125 C 1.316406 -10.628906 1.46875 -10.910156 1.6875 -11.046875 C 1.800781 -11.109375 1.929688 -11.140625 2.078125 -11.140625 C 2.265625 -11.140625 2.476562 -11.097656 2.71875 -11.015625 C 2.820312 -10.972656 2.929688 -10.960938 3.046875 -10.984375 C 3.160156 -11.015625 3.242188 -11.039062 3.296875 -11.0625 C 4.378906 -11.476562 5.554688 -11.535156 6.828125 -11.234375 C 8.179688 -10.921875 9.003906 -10.070312 9.296875 -8.6875 C 9.566406 -7.425781 9.148438 -6.367188 8.046875 -5.515625 C 7.921875 -5.421875 7.785156 -5.328125 7.640625 -5.234375 C 7.503906 -5.148438 7.351562 -5.054688 7.1875 -4.953125 C 7.125 -4.910156 7.050781 -4.863281 6.96875 -4.8125 C 6.882812 -4.769531 6.800781 -4.722656 6.71875 -4.671875 L 6.5 -4.53125 L 6.71875 -4.390625 C 6.832031 -4.328125 6.941406 -4.257812 7.046875 -4.1875 C 7.160156 -4.113281 7.269531 -4.046875 7.375 -3.984375 C 7.613281 -3.828125 7.847656 -3.675781 8.078125 -3.53125 C 8.316406 -3.394531 8.554688 -3.257812 8.796875 -3.125 Z M 3.296875 -6.609375 C 4.546875 -6.773438 5.628906 -7.175781 6.546875 -7.8125 C 6.859375 -8.03125 6.992188 -8.289062 6.953125 -8.59375 C 6.910156 -8.875 6.726562 -9.070312 6.40625 -9.1875 C 5.394531 -9.519531 4.503906 -9.425781 3.734375 -8.90625 C 3.421875 -8.695312 3.238281 -8.453125 3.1875 -8.171875 C 3.132812 -7.898438 3.113281 -7.628906 3.125 -7.359375 C 3.125 -7.253906 3.125 -7.15625 3.125 -7.0625 C 3.125 -6.96875 3.117188 -6.875 3.109375 -6.78125 L 3.078125 -6.578125 Z M 3.296875 -6.609375 "/></g></g></g><g fill="#754cff" fill-opacity="1"><g transform="translate(192.131374, 229.712815)"><g/></g></g><g fill="#754cff" fill-opacity="1"><g transform="translate(196.287875, 229.712815)"><g><path d="M 7.25 -2.21875 C 7.382812 -1.882812 7.332031 -1.539062 7.09375 -1.1875 C 7.070312 -1.15625 7.046875 -1.125 7.015625 -1.09375 C 6.992188 -1.070312 6.972656 -1.050781 6.953125 -1.03125 C 5.367188 0.113281 3.859375 0.441406 2.421875 -0.046875 C 2.003906 -0.179688 1.671875 -0.375 1.421875 -0.625 C 1.171875 -0.875 0.984375 -1.144531 0.859375 -1.4375 C 0.734375 -1.726562 0.648438 -2.015625 0.609375 -2.296875 C 0.578125 -2.578125 0.5625 -2.828125 0.5625 -3.046875 C 0.59375 -3.984375 0.644531 -4.925781 0.71875 -5.875 C 0.789062 -6.832031 0.875 -7.769531 0.96875 -8.6875 L 1.015625 -9.203125 C 1.046875 -9.546875 1.097656 -9.890625 1.171875 -10.234375 C 1.242188 -10.578125 1.335938 -10.941406 1.453125 -11.328125 C 1.597656 -11.910156 1.90625 -12.203125 2.375 -12.203125 C 2.40625 -12.203125 2.429688 -12.203125 2.453125 -12.203125 C 2.703125 -12.179688 2.90625 -12.082031 3.0625 -11.90625 C 3.21875 -11.726562 3.304688 -11.492188 3.328125 -11.203125 C 3.367188 -10.703125 3.394531 -10.203125 3.40625 -9.703125 C 3.425781 -9.210938 3.441406 -8.75 3.453125 -8.3125 C 3.453125 -8.125 3.453125 -7.945312 3.453125 -7.78125 C 3.460938 -7.625 3.472656 -7.472656 3.484375 -7.328125 C 3.484375 -7.109375 3.484375 -6.890625 3.484375 -6.671875 C 3.484375 -6.460938 3.484375 -6.257812 3.484375 -6.0625 C 3.484375 -5.601562 3.484375 -5.160156 3.484375 -4.734375 C 3.484375 -4.304688 3.484375 -3.882812 3.484375 -3.46875 C 3.492188 -3.300781 3.507812 -3.160156 3.53125 -3.046875 C 3.550781 -2.941406 3.601562 -2.859375 3.6875 -2.796875 C 3.769531 -2.710938 3.875 -2.664062 4 -2.65625 C 4.125 -2.65625 4.257812 -2.664062 4.40625 -2.6875 C 4.519531 -2.695312 4.628906 -2.707031 4.734375 -2.71875 C 4.835938 -2.738281 4.945312 -2.753906 5.0625 -2.765625 C 5.175781 -2.785156 5.289062 -2.800781 5.40625 -2.8125 C 5.519531 -2.832031 5.628906 -2.847656 5.734375 -2.859375 C 6.035156 -2.878906 6.285156 -2.867188 6.484375 -2.828125 C 6.878906 -2.734375 7.132812 -2.53125 7.25 -2.21875 Z M 7.25 -2.21875 "/></g></g></g><g fill="#754cff" fill-opacity="1"><g transform="translate(203.981163, 229.712815)"><g><path d="M 6.703125 -2.75 C 6.890625 -2.757812 7.085938 -2.726562 7.296875 -2.65625 C 7.503906 -2.59375 7.671875 -2.429688 7.796875 -2.171875 C 7.984375 -1.773438 7.898438 -1.378906 7.546875 -0.984375 C 7.316406 -0.742188 7.050781 -0.546875 6.75 -0.390625 C 5.457031 0.234375 4.046875 0.394531 2.515625 0.09375 C 1.617188 -0.09375 1.035156 -0.675781 0.765625 -1.65625 C 0.597656 -2.28125 0.53125 -2.90625 0.5625 -3.53125 C 0.59375 -4.164062 0.644531 -4.757812 0.71875 -5.3125 C 0.789062 -5.78125 0.867188 -6.242188 0.953125 -6.703125 C 1.035156 -7.171875 1.113281 -7.628906 1.1875 -8.078125 C 1.226562 -8.304688 1.265625 -8.523438 1.296875 -8.734375 C 1.335938 -8.953125 1.378906 -9.171875 1.421875 -9.390625 L 1.4375 -9.453125 C 1.445312 -9.515625 1.457031 -9.578125 1.46875 -9.640625 C 1.476562 -9.710938 1.472656 -9.78125 1.453125 -9.84375 C 1.335938 -10.40625 1.578125 -10.847656 2.171875 -11.171875 C 2.285156 -11.222656 2.398438 -11.273438 2.515625 -11.328125 C 2.628906 -11.378906 2.75 -11.414062 2.875 -11.4375 L 3.515625 -11.53125 C 3.984375 -11.59375 4.457031 -11.65625 4.9375 -11.71875 C 5.414062 -11.78125 5.890625 -11.820312 6.359375 -11.84375 C 6.398438 -11.84375 6.441406 -11.84375 6.484375 -11.84375 C 6.953125 -11.84375 7.332031 -11.707031 7.625 -11.4375 C 7.882812 -11.207031 8.019531 -10.921875 8.03125 -10.578125 C 8.039062 -10.191406 7.894531 -9.875 7.59375 -9.625 C 7.300781 -9.375 6.914062 -9.234375 6.4375 -9.203125 C 6.125 -9.179688 5.8125 -9.175781 5.5 -9.1875 C 5.1875 -9.195312 4.875 -9.210938 4.5625 -9.234375 L 4.171875 -9.25 C 3.984375 -9.257812 3.832031 -9.257812 3.71875 -9.25 C 3.601562 -9.25 3.507812 -9.210938 3.4375 -9.140625 C 3.375 -9.078125 3.335938 -8.988281 3.328125 -8.875 C 3.316406 -8.769531 3.3125 -8.625 3.3125 -8.4375 C 3.3125 -8.238281 3.3125 -8.039062 3.3125 -7.84375 C 3.3125 -7.65625 3.3125 -7.46875 3.3125 -7.28125 L 3.3125 -6.53125 L 3.5 -6.5625 C 3.613281 -6.582031 3.722656 -6.597656 3.828125 -6.609375 C 3.929688 -6.628906 4.039062 -6.65625 4.15625 -6.6875 C 4.382812 -6.726562 4.613281 -6.769531 4.84375 -6.8125 C 5.070312 -6.851562 5.296875 -6.882812 5.515625 -6.90625 C 6.078125 -6.957031 6.601562 -6.925781 7.09375 -6.8125 C 7.519531 -6.71875 7.75 -6.453125 7.78125 -6.015625 C 7.800781 -5.765625 7.742188 -5.566406 7.609375 -5.421875 C 7.484375 -5.273438 7.347656 -5.164062 7.203125 -5.09375 C 6.847656 -4.90625 6.507812 -4.800781 6.1875 -4.78125 C 5.863281 -4.75 5.53125 -4.722656 5.1875 -4.703125 C 4.851562 -4.691406 4.515625 -4.675781 4.171875 -4.65625 C 4.023438 -4.65625 3.878906 -4.648438 3.734375 -4.640625 C 3.585938 -4.628906 3.441406 -4.625 3.296875 -4.625 L 3.140625 -4.609375 L 3.140625 -4.453125 C 3.140625 -4.378906 3.140625 -4.304688 3.140625 -4.234375 C 3.140625 -4.160156 3.140625 -4.085938 3.140625 -4.015625 C 3.140625 -3.804688 3.140625 -3.59375 3.140625 -3.375 C 3.140625 -3.15625 3.144531 -2.941406 3.15625 -2.734375 C 3.15625 -2.660156 3.175781 -2.597656 3.21875 -2.546875 C 3.269531 -2.492188 3.3125 -2.453125 3.34375 -2.421875 C 3.382812 -2.390625 3.429688 -2.351562 3.484375 -2.3125 C 3.546875 -2.28125 3.613281 -2.265625 3.6875 -2.265625 C 4.25 -2.304688 4.875 -2.382812 5.5625 -2.5 C 5.65625 -2.507812 5.742188 -2.523438 5.828125 -2.546875 C 5.910156 -2.566406 5.992188 -2.585938 6.078125 -2.609375 C 6.179688 -2.640625 6.285156 -2.664062 6.390625 -2.6875 C 6.503906 -2.71875 6.609375 -2.738281 6.703125 -2.75 Z M 6.703125 -2.75 "/></g></g></g><g fill="#754cff" fill-opacity="1"><g transform="translate(212.399946, 229.712815)"><g><path d="M 8.09375 -3.640625 C 8.28125 -2.921875 8.226562 -2.28125 7.9375 -1.71875 C 7.644531 -1.15625 7.164062 -0.765625 6.5 -0.546875 C 5.75 -0.285156 4.851562 -0.132812 3.8125 -0.09375 C 3.332031 -0.0703125 2.910156 -0.175781 2.546875 -0.40625 C 2.179688 -0.644531 1.882812 -0.890625 1.65625 -1.140625 C 1.414062 -1.410156 1.269531 -1.703125 1.21875 -2.015625 C 1.164062 -2.328125 1.210938 -2.609375 1.359375 -2.859375 C 1.597656 -3.273438 1.992188 -3.484375 2.546875 -3.484375 C 2.703125 -3.484375 2.851562 -3.46875 3 -3.4375 C 3.0625 -3.425781 3.128906 -3.410156 3.203125 -3.390625 C 3.273438 -3.378906 3.34375 -3.363281 3.40625 -3.34375 C 3.675781 -3.257812 3.953125 -3.191406 4.234375 -3.140625 C 4.515625 -3.085938 4.8125 -3.109375 5.125 -3.203125 L 5.625 -3.359375 L 5.546875 -3.515625 C 5.410156 -3.828125 5.222656 -4.054688 4.984375 -4.203125 C 4.742188 -4.347656 4.492188 -4.460938 4.234375 -4.546875 C 3.191406 -4.859375 2.253906 -5.4375 1.421875 -6.28125 C 0.804688 -6.90625 0.519531 -7.609375 0.5625 -8.390625 C 0.601562 -9.148438 0.953125 -9.796875 1.609375 -10.328125 C 2.847656 -11.359375 4.257812 -11.6875 5.84375 -11.3125 C 6.550781 -11.15625 7.078125 -10.800781 7.421875 -10.25 C 7.546875 -10.007812 7.617188 -9.753906 7.640625 -9.484375 C 7.640625 -9.410156 7.628906 -9.320312 7.609375 -9.21875 C 7.585938 -9.113281 7.546875 -9.035156 7.484375 -8.984375 C 7.359375 -8.898438 7.171875 -8.90625 6.921875 -9 C 6.617188 -9.125 6.25 -9.238281 5.8125 -9.34375 C 5.382812 -9.445312 4.925781 -9.445312 4.4375 -9.34375 C 4.207031 -9.289062 3.984375 -9.210938 3.765625 -9.109375 C 3.546875 -9.003906 3.347656 -8.898438 3.171875 -8.796875 C 2.960938 -8.671875 2.859375 -8.515625 2.859375 -8.328125 C 2.859375 -8.128906 2.957031 -7.96875 3.15625 -7.84375 L 3.484375 -7.640625 C 3.753906 -7.484375 4.03125 -7.328125 4.3125 -7.171875 C 4.59375 -7.015625 4.878906 -6.875 5.171875 -6.75 C 6.773438 -6.101562 7.75 -5.066406 8.09375 -3.640625 Z M 8.09375 -3.640625 "/></g></g></g><g fill="#754cff" fill-opacity="1"><g transform="translate(220.984993, 229.712815)"><g/></g></g><g fill="#754cff" fill-opacity="1"><g transform="translate(225.141494, 229.712815)"><g><path d="M 8.796875 -3.125 C 8.960938 -3.03125 9.117188 -2.910156 9.265625 -2.765625 C 9.421875 -2.628906 9.535156 -2.460938 9.609375 -2.265625 C 9.679688 -2.066406 9.671875 -1.84375 9.578125 -1.59375 C 9.472656 -1.257812 9.265625 -1.007812 8.953125 -0.84375 C 8.640625 -0.6875 8.316406 -0.648438 7.984375 -0.734375 C 7.722656 -0.804688 7.472656 -0.90625 7.234375 -1.03125 C 7.003906 -1.15625 6.773438 -1.285156 6.546875 -1.421875 C 6.234375 -1.597656 5.921875 -1.78125 5.609375 -1.96875 C 5.296875 -2.164062 4.988281 -2.351562 4.6875 -2.53125 C 4.519531 -2.632812 4.359375 -2.734375 4.203125 -2.828125 C 4.046875 -2.921875 3.890625 -3.019531 3.734375 -3.125 C 3.679688 -3.15625 3.628906 -3.179688 3.578125 -3.203125 C 3.523438 -3.234375 3.472656 -3.265625 3.421875 -3.296875 C 3.335938 -3.328125 3.265625 -3.363281 3.203125 -3.40625 L 2.96875 -3.5 L 2.90625 -2.625 C 2.875 -2.40625 2.847656 -2.1875 2.828125 -1.96875 C 2.804688 -1.757812 2.785156 -1.554688 2.765625 -1.359375 C 2.710938 -0.984375 2.585938 -0.695312 2.390625 -0.5 C 2.203125 -0.300781 1.960938 -0.207031 1.671875 -0.21875 C 1.378906 -0.226562 1.140625 -0.335938 0.953125 -0.546875 C 0.773438 -0.753906 0.671875 -1.039062 0.640625 -1.40625 C 0.429688 -4.09375 0.628906 -7.023438 1.234375 -10.203125 C 1.316406 -10.628906 1.46875 -10.910156 1.6875 -11.046875 C 1.800781 -11.109375 1.929688 -11.140625 2.078125 -11.140625 C 2.265625 -11.140625 2.476562 -11.097656 2.71875 -11.015625 C 2.820312 -10.972656 2.929688 -10.960938 3.046875 -10.984375 C 3.160156 -11.015625 3.242188 -11.039062 3.296875 -11.0625 C 4.378906 -11.476562 5.554688 -11.535156 6.828125 -11.234375 C 8.179688 -10.921875 9.003906 -10.070312 9.296875 -8.6875 C 9.566406 -7.425781 9.148438 -6.367188 8.046875 -5.515625 C 7.921875 -5.421875 7.785156 -5.328125 7.640625 -5.234375 C 7.503906 -5.148438 7.351562 -5.054688 7.1875 -4.953125 C 7.125 -4.910156 7.050781 -4.863281 6.96875 -4.8125 C 6.882812 -4.769531 6.800781 -4.722656 6.71875 -4.671875 L 6.5 -4.53125 L 6.71875 -4.390625 C 6.832031 -4.328125 6.941406 -4.257812 7.046875 -4.1875 C 7.160156 -4.113281 7.269531 -4.046875 7.375 -3.984375 C 7.613281 -3.828125 7.847656 -3.675781 8.078125 -3.53125 C 8.316406 -3.394531 8.554688 -3.257812 8.796875 -3.125 Z M 3.296875 -6.609375 C 4.546875 -6.773438 5.628906 -7.175781 6.546875 -7.8125 C 6.859375 -8.03125 6.992188 -8.289062 6.953125 -8.59375 C 6.910156 -8.875 6.726562 -9.070312 6.40625 -9.1875 C 5.394531 -9.519531 4.503906 -9.425781 3.734375 -8.90625 C 3.421875 -8.695312 3.238281 -8.453125 3.1875 -8.171875 C 3.132812 -7.898438 3.113281 -7.628906 3.125 -7.359375 C 3.125 -7.253906 3.125 -7.15625 3.125 -7.0625 C 3.125 -6.96875 3.117188 -6.875 3.109375 -6.78125 L 3.078125 -6.578125 Z M 3.296875 -6.609375 "/></g></g></g><g fill="#754cff" fill-opacity="1"><g transform="translate(235.177533, 229.712815)"><g><path d="M 6.859375 -3.109375 C 7.117188 -3.128906 7.359375 -3.085938 7.578125 -2.984375 C 7.804688 -2.890625 7.984375 -2.710938 8.109375 -2.453125 C 8.234375 -2.191406 8.257812 -1.941406 8.1875 -1.703125 C 8.125 -1.472656 8.003906 -1.265625 7.828125 -1.078125 C 7.585938 -0.816406 7.3125 -0.609375 7 -0.453125 C 6.3125 -0.109375 5.601562 0.09375 4.875 0.15625 C 4.144531 0.226562 3.40625 0.191406 2.65625 0.046875 C 2.15625 -0.0546875 1.75 -0.269531 1.4375 -0.59375 C 1.132812 -0.925781 0.914062 -1.332031 0.78125 -1.8125 C 0.613281 -2.4375 0.539062 -3.054688 0.5625 -3.671875 C 0.59375 -4.296875 0.644531 -4.921875 0.71875 -5.546875 C 0.820312 -6.222656 0.9375 -6.898438 1.0625 -7.578125 C 1.1875 -8.253906 1.304688 -8.9375 1.421875 -9.625 C 1.429688 -9.6875 1.441406 -9.75 1.453125 -9.8125 C 1.472656 -9.882812 1.472656 -9.953125 1.453125 -10.015625 C 1.378906 -10.378906 1.421875 -10.675781 1.578125 -10.90625 C 1.742188 -11.144531 1.972656 -11.347656 2.265625 -11.515625 C 2.390625 -11.578125 2.515625 -11.632812 2.640625 -11.6875 C 2.765625 -11.738281 2.882812 -11.773438 3 -11.796875 C 3.59375 -11.878906 4.179688 -11.957031 4.765625 -12.03125 C 5.347656 -12.113281 5.9375 -12.171875 6.53125 -12.203125 C 7.050781 -12.234375 7.484375 -12.109375 7.828125 -11.828125 C 8.171875 -11.546875 8.351562 -11.191406 8.375 -10.765625 C 8.382812 -10.359375 8.226562 -10.007812 7.90625 -9.71875 C 7.582031 -9.425781 7.148438 -9.265625 6.609375 -9.234375 C 6.234375 -9.210938 5.859375 -9.210938 5.484375 -9.234375 C 5.109375 -9.253906 4.734375 -9.269531 4.359375 -9.28125 C 4.117188 -9.289062 3.945312 -9.289062 3.84375 -9.28125 C 3.75 -9.269531 3.691406 -9.210938 3.671875 -9.109375 C 3.648438 -9.015625 3.640625 -8.851562 3.640625 -8.625 C 3.640625 -8.351562 3.640625 -8.078125 3.640625 -7.796875 C 3.640625 -7.515625 3.640625 -7.222656 3.640625 -6.921875 C 3.992188 -6.992188 4.335938 -7.0625 4.671875 -7.125 C 5.003906 -7.1875 5.335938 -7.234375 5.671875 -7.265625 C 5.929688 -7.285156 6.195312 -7.289062 6.46875 -7.28125 C 6.75 -7.269531 7.019531 -7.234375 7.28125 -7.171875 C 7.5 -7.117188 7.6875 -7.015625 7.84375 -6.859375 C 8 -6.703125 8.085938 -6.488281 8.109375 -6.21875 C 8.128906 -5.957031 8.078125 -5.738281 7.953125 -5.5625 C 7.828125 -5.382812 7.660156 -5.242188 7.453125 -5.140625 C 7.285156 -5.054688 7.109375 -4.984375 6.921875 -4.921875 C 6.734375 -4.859375 6.546875 -4.820312 6.359375 -4.8125 C 5.898438 -4.769531 5.429688 -4.738281 4.953125 -4.71875 C 4.472656 -4.707031 3.976562 -4.6875 3.46875 -4.65625 C 3.46875 -4.375 3.460938 -4.085938 3.453125 -3.796875 C 3.453125 -3.515625 3.460938 -3.226562 3.484375 -2.9375 C 3.484375 -2.882812 3.523438 -2.816406 3.609375 -2.734375 C 3.703125 -2.660156 3.78125 -2.628906 3.84375 -2.640625 C 4.15625 -2.660156 4.46875 -2.6875 4.78125 -2.71875 C 5.09375 -2.757812 5.398438 -2.804688 5.703125 -2.859375 C 5.898438 -2.890625 6.09375 -2.9375 6.28125 -3 C 6.476562 -3.0625 6.671875 -3.097656 6.859375 -3.109375 Z M 4.6875 -13.390625 C 4.320312 -13.398438 4.078125 -13.503906 3.953125 -13.703125 C 3.828125 -13.898438 3.835938 -14.140625 3.984375 -14.421875 C 4.171875 -14.742188 4.363281 -15.0625 4.5625 -15.375 C 4.769531 -15.695312 4.984375 -16.015625 5.203125 -16.328125 C 5.347656 -16.546875 5.523438 -16.675781 5.734375 -16.71875 C 5.953125 -16.757812 6.148438 -16.722656 6.328125 -16.609375 C 6.523438 -16.472656 6.640625 -16.300781 6.671875 -16.09375 C 6.703125 -15.882812 6.644531 -15.660156 6.5 -15.421875 C 6.300781 -15.148438 6.109375 -14.875 5.921875 -14.59375 C 5.734375 -14.320312 5.53125 -14.0625 5.3125 -13.8125 C 5.226562 -13.695312 5.117188 -13.609375 4.984375 -13.546875 C 4.859375 -13.492188 4.757812 -13.441406 4.6875 -13.390625 Z M 4.6875 -13.390625 "/></g></g></g><g fill="#754cff" fill-opacity="1"><g transform="translate(243.928842, 229.712815)"><g><path d="M 8.09375 -3.640625 C 8.28125 -2.921875 8.226562 -2.28125 7.9375 -1.71875 C 7.644531 -1.15625 7.164062 -0.765625 6.5 -0.546875 C 5.75 -0.285156 4.851562 -0.132812 3.8125 -0.09375 C 3.332031 -0.0703125 2.910156 -0.175781 2.546875 -0.40625 C 2.179688 -0.644531 1.882812 -0.890625 1.65625 -1.140625 C 1.414062 -1.410156 1.269531 -1.703125 1.21875 -2.015625 C 1.164062 -2.328125 1.210938 -2.609375 1.359375 -2.859375 C 1.597656 -3.273438 1.992188 -3.484375 2.546875 -3.484375 C 2.703125 -3.484375 2.851562 -3.46875 3 -3.4375 C 3.0625 -3.425781 3.128906 -3.410156 3.203125 -3.390625 C 3.273438 -3.378906 3.34375 -3.363281 3.40625 -3.34375 C 3.675781 -3.257812 3.953125 -3.191406 4.234375 -3.140625 C 4.515625 -3.085938 4.8125 -3.109375 5.125 -3.203125 L 5.625 -3.359375 L 5.546875 -3.515625 C 5.410156 -3.828125 5.222656 -4.054688 4.984375 -4.203125 C 4.742188 -4.347656 4.492188 -4.460938 4.234375 -4.546875 C 3.191406 -4.859375 2.253906 -5.4375 1.421875 -6.28125 C 0.804688 -6.90625 0.519531 -7.609375 0.5625 -8.390625 C 0.601562 -9.148438 0.953125 -9.796875 1.609375 -10.328125 C 2.847656 -11.359375 4.257812 -11.6875 5.84375 -11.3125 C 6.550781 -11.15625 7.078125 -10.800781 7.421875 -10.25 C 7.546875 -10.007812 7.617188 -9.753906 7.640625 -9.484375 C 7.640625 -9.410156 7.628906 -9.320312 7.609375 -9.21875 C 7.585938 -9.113281 7.546875 -9.035156 7.484375 -8.984375 C 7.359375 -8.898438 7.171875 -8.90625 6.921875 -9 C 6.617188 -9.125 6.25 -9.238281 5.8125 -9.34375 C 5.382812 -9.445312 4.925781 -9.445312 4.4375 -9.34375 C 4.207031 -9.289062 3.984375 -9.210938 3.765625 -9.109375 C 3.546875 -9.003906 3.347656 -8.898438 3.171875 -8.796875 C 2.960938 -8.671875 2.859375 -8.515625 2.859375 -8.328125 C 2.859375 -8.128906 2.957031 -7.96875 3.15625 -7.84375 L 3.484375 -7.640625 C 3.753906 -7.484375 4.03125 -7.328125 4.3125 -7.171875 C 4.59375 -7.015625 4.878906 -6.875 5.171875 -6.75 C 6.773438 -6.101562 7.75 -5.066406 8.09375 -3.640625 Z M 8.09375 -3.640625 "/></g></g></g><g fill="#754cff" fill-opacity="1"><g transform="translate(252.513889, 229.712815)"><g><path d="M 6.703125 -2.75 C 6.890625 -2.757812 7.085938 -2.726562 7.296875 -2.65625 C 7.503906 -2.59375 7.671875 -2.429688 7.796875 -2.171875 C 7.984375 -1.773438 7.898438 -1.378906 7.546875 -0.984375 C 7.316406 -0.742188 7.050781 -0.546875 6.75 -0.390625 C 5.457031 0.234375 4.046875 0.394531 2.515625 0.09375 C 1.617188 -0.09375 1.035156 -0.675781 0.765625 -1.65625 C 0.597656 -2.28125 0.53125 -2.90625 0.5625 -3.53125 C 0.59375 -4.164062 0.644531 -4.757812 0.71875 -5.3125 C 0.789062 -5.78125 0.867188 -6.242188 0.953125 -6.703125 C 1.035156 -7.171875 1.113281 -7.628906 1.1875 -8.078125 C 1.226562 -8.304688 1.265625 -8.523438 1.296875 -8.734375 C 1.335938 -8.953125 1.378906 -9.171875 1.421875 -9.390625 L 1.4375 -9.453125 C 1.445312 -9.515625 1.457031 -9.578125 1.46875 -9.640625 C 1.476562 -9.710938 1.472656 -9.78125 1.453125 -9.84375 C 1.335938 -10.40625 1.578125 -10.847656 2.171875 -11.171875 C 2.285156 -11.222656 2.398438 -11.273438 2.515625 -11.328125 C 2.628906 -11.378906 2.75 -11.414062 2.875 -11.4375 L 3.515625 -11.53125 C 3.984375 -11.59375 4.457031 -11.65625 4.9375 -11.71875 C 5.414062 -11.78125 5.890625 -11.820312 6.359375 -11.84375 C 6.398438 -11.84375 6.441406 -11.84375 6.484375 -11.84375 C 6.953125 -11.84375 7.332031 -11.707031 7.625 -11.4375 C 7.882812 -11.207031 8.019531 -10.921875 8.03125 -10.578125 C 8.039062 -10.191406 7.894531 -9.875 7.59375 -9.625 C 7.300781 -9.375 6.914062 -9.234375 6.4375 -9.203125 C 6.125 -9.179688 5.8125 -9.175781 5.5 -9.1875 C 5.1875 -9.195312 4.875 -9.210938 4.5625 -9.234375 L 4.171875 -9.25 C 3.984375 -9.257812 3.832031 -9.257812 3.71875 -9.25 C 3.601562 -9.25 3.507812 -9.210938 3.4375 -9.140625 C 3.375 -9.078125 3.335938 -8.988281 3.328125 -8.875 C 3.316406 -8.769531 3.3125 -8.625 3.3125 -8.4375 C 3.3125 -8.238281 3.3125 -8.039062 3.3125 -7.84375 C 3.3125 -7.65625 3.3125 -7.46875 3.3125 -7.28125 L 3.3125 -6.53125 L 3.5 -6.5625 C 3.613281 -6.582031 3.722656 -6.597656 3.828125 -6.609375 C 3.929688 -6.628906 4.039062 -6.65625 4.15625 -6.6875 C 4.382812 -6.726562 4.613281 -6.769531 4.84375 -6.8125 C 5.070312 -6.851562 5.296875 -6.882812 5.515625 -6.90625 C 6.078125 -6.957031 6.601562 -6.925781 7.09375 -6.8125 C 7.519531 -6.71875 7.75 -6.453125 7.78125 -6.015625 C 7.800781 -5.765625 7.742188 -5.566406 7.609375 -5.421875 C 7.484375 -5.273438 7.347656 -5.164062 7.203125 -5.09375 C 6.847656 -4.90625 6.507812 -4.800781 6.1875 -4.78125 C 5.863281 -4.75 5.53125 -4.722656 5.1875 -4.703125 C 4.851562 -4.691406 4.515625 -4.675781 4.171875 -4.65625 C 4.023438 -4.65625 3.878906 -4.648438 3.734375 -4.640625 C 3.585938 -4.628906 3.441406 -4.625 3.296875 -4.625 L 3.140625 -4.609375 L 3.140625 -4.453125 C 3.140625 -4.378906 3.140625 -4.304688 3.140625 -4.234375 C 3.140625 -4.160156 3.140625 -4.085938 3.140625 -4.015625 C 3.140625 -3.804688 3.140625 -3.59375 3.140625 -3.375 C 3.140625 -3.15625 3.144531 -2.941406 3.15625 -2.734375 C 3.15625 -2.660156 3.175781 -2.597656 3.21875 -2.546875 C 3.269531 -2.492188 3.3125 -2.453125 3.34375 -2.421875 C 3.382812 -2.390625 3.429688 -2.351562 3.484375 -2.3125 C 3.546875 -2.28125 3.613281 -2.265625 3.6875 -2.265625 C 4.25 -2.304688 4.875 -2.382812 5.5625 -2.5 C 5.65625 -2.507812 5.742188 -2.523438 5.828125 -2.546875 C 5.910156 -2.566406 5.992188 -2.585938 6.078125 -2.609375 C 6.179688 -2.640625 6.285156 -2.664062 6.390625 -2.6875 C 6.503906 -2.71875 6.609375 -2.738281 6.703125 -2.75 Z M 6.703125 -2.75 "/></g></g></g><g fill="#754cff" fill-opacity="1"><g transform="translate(260.932672, 229.712815)"><g><path d="M 11.5625 -2.484375 C 11.570312 -2.410156 11.585938 -2.34375 11.609375 -2.28125 C 11.597656 -1.90625 11.515625 -1.59375 11.359375 -1.34375 C 11.203125 -1.09375 10.984375 -0.925781 10.703125 -0.84375 C 10.421875 -0.75 10.144531 -0.757812 9.875 -0.875 C 9.613281 -0.988281 9.40625 -1.175781 9.25 -1.4375 C 9.070312 -1.726562 8.925781 -2.085938 8.8125 -2.515625 C 8.769531 -2.679688 8.695312 -2.828125 8.59375 -2.953125 C 8.5 -3.085938 8.316406 -3.160156 8.046875 -3.171875 C 7.753906 -3.179688 7.460938 -3.191406 7.171875 -3.203125 C 6.878906 -3.210938 6.585938 -3.222656 6.296875 -3.234375 C 5.910156 -3.253906 5.519531 -3.269531 5.125 -3.28125 C 4.738281 -3.300781 4.347656 -3.316406 3.953125 -3.328125 C 3.859375 -3.328125 3.75 -3.28125 3.625 -3.1875 C 3.5 -3.101562 3.410156 -3.019531 3.359375 -2.9375 C 3.273438 -2.789062 3.191406 -2.644531 3.109375 -2.5 C 3.035156 -2.351562 2.96875 -2.207031 2.90625 -2.0625 C 2.832031 -1.925781 2.753906 -1.78125 2.671875 -1.625 C 2.597656 -1.476562 2.519531 -1.332031 2.4375 -1.1875 C 2.082031 -0.570312 1.648438 -0.378906 1.140625 -0.609375 C 0.941406 -0.679688 0.78125 -0.835938 0.65625 -1.078125 C 0.53125 -1.328125 0.519531 -1.613281 0.625 -1.9375 C 0.96875 -3.03125 1.421875 -4.273438 1.984375 -5.671875 C 2.335938 -6.554688 2.78125 -7.550781 3.3125 -8.65625 C 3.457031 -8.96875 3.625 -9.296875 3.8125 -9.640625 C 4 -9.992188 4.203125 -10.335938 4.421875 -10.671875 C 4.660156 -11.003906 5 -11.296875 5.4375 -11.546875 C 5.769531 -11.742188 6.085938 -11.84375 6.390625 -11.84375 C 6.921875 -11.84375 7.363281 -11.546875 7.71875 -10.953125 C 8.414062 -9.765625 9.097656 -8.523438 9.765625 -7.234375 C 10.429688 -5.953125 10.96875 -4.601562 11.375 -3.1875 C 11.414062 -3.050781 11.453125 -2.921875 11.484375 -2.796875 C 11.515625 -2.679688 11.539062 -2.578125 11.5625 -2.484375 Z M 4.84375 -5.875 L 7.671875 -5.875 L 6.0625 -9.1875 Z M 4.84375 -5.875 "/></g></g></g><g fill="#754cff" fill-opacity="1"><g transform="translate(272.918473, 229.712815)"><g><path d="M 9.84375 -10.609375 C 10 -10.203125 10.0625 -9.875 10.03125 -9.625 C 9.769531 -7.582031 9.507812 -5.757812 9.25 -4.15625 C 9.195312 -3.894531 9.117188 -3.628906 9.015625 -3.359375 C 8.910156 -3.097656 8.796875 -2.847656 8.671875 -2.609375 C 8.148438 -1.535156 7.351562 -0.84375 6.28125 -0.53125 C 5.207031 -0.21875 4.148438 -0.382812 3.109375 -1.03125 C 1.535156 -2.007812 0.707031 -3.472656 0.625 -5.421875 C 0.613281 -5.566406 0.609375 -5.707031 0.609375 -5.84375 C 0.617188 -5.988281 0.625 -6.128906 0.625 -6.265625 C 0.625 -6.335938 0.625 -6.40625 0.625 -6.46875 C 0.625 -6.539062 0.625 -6.601562 0.625 -6.65625 L 0.625 -6.828125 L 0.5625 -6.828125 L 0.609375 -7.359375 C 0.640625 -7.734375 0.664062 -8.101562 0.6875 -8.46875 C 0.71875 -8.84375 0.753906 -9.21875 0.796875 -9.59375 C 0.804688 -9.738281 0.84375 -9.90625 0.90625 -10.09375 C 1.0625 -10.539062 1.347656 -10.78125 1.765625 -10.8125 C 1.960938 -10.820312 2.144531 -10.765625 2.3125 -10.640625 C 2.476562 -10.515625 2.59375 -10.34375 2.65625 -10.125 C 2.769531 -9.769531 2.851562 -9.335938 2.90625 -8.828125 C 2.9375 -8.484375 2.960938 -8.140625 2.984375 -7.796875 C 3.015625 -7.453125 3.046875 -7.109375 3.078125 -6.765625 C 3.097656 -6.554688 3.117188 -6.335938 3.140625 -6.109375 C 3.160156 -5.890625 3.179688 -5.671875 3.203125 -5.453125 C 3.296875 -4.460938 3.726562 -3.710938 4.5 -3.203125 C 5.007812 -2.867188 5.46875 -2.78125 5.875 -2.9375 C 6.25 -3.070312 6.503906 -3.390625 6.640625 -3.890625 C 6.785156 -4.390625 6.898438 -4.894531 6.984375 -5.40625 C 7.078125 -5.925781 7.160156 -6.4375 7.234375 -6.9375 L 7.28125 -7.171875 C 7.3125 -7.398438 7.335938 -7.625 7.359375 -7.84375 C 7.378906 -8.070312 7.398438 -8.296875 7.421875 -8.515625 C 7.429688 -8.703125 7.445312 -8.894531 7.46875 -9.09375 C 7.488281 -9.289062 7.507812 -9.476562 7.53125 -9.65625 C 7.570312 -10.039062 7.675781 -10.390625 7.84375 -10.703125 C 8.050781 -11.097656 8.398438 -11.28125 8.890625 -11.25 C 9.347656 -11.226562 9.664062 -11.015625 9.84375 -10.609375 Z M 9.84375 -10.609375 "/></g></g></g><g fill="#754cff" fill-opacity="1"><g transform="translate(283.347482, 229.712815)"><g><path d="M 9.28125 -9.71875 C 9 -9.300781 8.695312 -8.863281 8.375 -8.40625 C 8.050781 -7.957031 7.679688 -7.457031 7.265625 -6.90625 C 7.046875 -6.613281 7.03125 -6.304688 7.21875 -5.984375 C 7.5625 -5.421875 7.894531 -4.851562 8.21875 -4.28125 C 8.539062 -3.707031 8.878906 -3.109375 9.234375 -2.484375 C 9.441406 -2.097656 9.539062 -1.738281 9.53125 -1.40625 C 9.53125 -1.070312 9.414062 -0.820312 9.1875 -0.65625 C 8.9375 -0.445312 8.640625 -0.382812 8.296875 -0.46875 C 7.960938 -0.550781 7.660156 -0.75 7.390625 -1.0625 C 7.160156 -1.332031 6.9375 -1.613281 6.71875 -1.90625 C 6.507812 -2.195312 6.3125 -2.488281 6.125 -2.78125 C 6.03125 -2.90625 5.941406 -3.03125 5.859375 -3.15625 C 5.773438 -3.28125 5.691406 -3.398438 5.609375 -3.515625 C 5.566406 -3.566406 5.523438 -3.625 5.484375 -3.6875 C 5.453125 -3.75 5.414062 -3.8125 5.375 -3.875 L 5.15625 -4.234375 L 5.015625 -4.09375 C 4.984375 -4.070312 4.957031 -4.050781 4.9375 -4.03125 C 4.914062 -4.019531 4.894531 -4.003906 4.875 -3.984375 C 4.832031 -3.953125 4.796875 -3.921875 4.765625 -3.890625 C 4.734375 -3.859375 4.703125 -3.820312 4.671875 -3.78125 C 4.367188 -3.40625 4.066406 -3.023438 3.765625 -2.640625 C 3.460938 -2.265625 3.15625 -1.894531 2.84375 -1.53125 L 2.21875 -0.734375 C 2.1875 -0.703125 2.15625 -0.664062 2.125 -0.625 C 2.09375 -0.59375 2.066406 -0.5625 2.046875 -0.53125 C 1.878906 -0.363281 1.6875 -0.257812 1.46875 -0.21875 C 1.257812 -0.1875 1.078125 -0.21875 0.921875 -0.3125 C 0.753906 -0.414062 0.644531 -0.5625 0.59375 -0.75 C 0.539062 -0.945312 0.554688 -1.148438 0.640625 -1.359375 C 0.785156 -1.773438 0.957031 -2.140625 1.15625 -2.453125 C 1.988281 -3.753906 2.738281 -4.894531 3.40625 -5.875 C 3.507812 -6.039062 3.570312 -6.195312 3.59375 -6.34375 C 3.613281 -6.5 3.554688 -6.664062 3.421875 -6.84375 C 3.015625 -7.3125 2.5625 -7.878906 2.0625 -8.546875 L 2.015625 -8.640625 C 1.867188 -8.828125 1.722656 -9.015625 1.578125 -9.203125 C 1.441406 -9.398438 1.3125 -9.601562 1.1875 -9.8125 C 0.851562 -10.40625 0.867188 -10.875 1.234375 -11.21875 C 1.429688 -11.394531 1.648438 -11.484375 1.890625 -11.484375 C 2.171875 -11.484375 2.4375 -11.382812 2.6875 -11.1875 C 2.976562 -10.945312 3.257812 -10.703125 3.53125 -10.453125 C 3.800781 -10.203125 4.070312 -9.957031 4.34375 -9.71875 C 4.4375 -9.625 4.53125 -9.53125 4.625 -9.4375 C 4.726562 -9.351562 4.820312 -9.265625 4.90625 -9.171875 C 4.945312 -9.140625 4.988281 -9.097656 5.03125 -9.046875 C 5.070312 -8.992188 5.117188 -8.945312 5.171875 -8.90625 C 5.222656 -8.84375 5.265625 -8.785156 5.296875 -8.734375 L 5.421875 -8.578125 L 6.15625 -9.40625 C 6.414062 -9.707031 6.671875 -10 6.921875 -10.28125 C 7.171875 -10.570312 7.421875 -10.859375 7.671875 -11.140625 C 7.898438 -11.378906 8.140625 -11.578125 8.390625 -11.734375 C 8.734375 -11.953125 9.066406 -11.941406 9.390625 -11.703125 C 9.722656 -11.472656 9.84375 -11.171875 9.75 -10.796875 C 9.632812 -10.367188 9.476562 -10.007812 9.28125 -9.71875 Z M 9.28125 -9.71875 "/></g></g></g><g clip-path="url(#3c4ce534f9)"><g clip-path="url(#e310b8722b)"><g clip-path="url(#2ec21b0de4)"><path fill="#754cff" d="M 262.566406 133.6875 C 261.652344 133.503906 260.753906 133.285156 259.863281 133.027344 C 258.96875 132.765625 258.089844 132.46875 257.226562 132.132812 C 256.359375 131.796875 255.511719 131.425781 254.679688 131.015625 C 253.84375 130.605469 253.03125 130.160156 252.238281 129.679688 C 251.441406 129.199219 250.671875 128.683594 249.921875 128.136719 C 249.171875 127.589844 248.445312 127.011719 247.746094 126.402344 C 247.046875 125.789062 246.375 125.152344 245.734375 124.480469 C 245.089844 123.8125 244.476562 123.117188 243.890625 122.394531 C 243.308594 121.671875 242.757812 120.925781 242.238281 120.15625 C 241.722656 119.386719 241.238281 118.59375 240.789062 117.78125 C 240.339844 116.96875 239.925781 116.140625 239.546875 115.292969 C 239.171875 114.441406 238.832031 113.578125 238.527344 112.703125 C 238.226562 111.824219 237.964844 110.933594 237.738281 110.035156 C 237.515625 109.132812 237.328125 108.222656 237.183594 107.308594 C 237.039062 106.390625 236.929688 105.46875 236.867188 104.542969 C 236.800781 103.617188 236.773438 102.691406 236.789062 101.761719 C 236.796875 101.300781 236.890625 100.855469 237.070312 100.433594 C 237.253906 100.007812 237.511719 99.632812 237.839844 99.3125 C 238.171875 98.988281 238.550781 98.742188 238.980469 98.570312 C 239.410156 98.398438 239.855469 98.316406 240.316406 98.324219 C 240.777344 98.328125 241.21875 98.421875 241.644531 98.605469 C 242.070312 98.785156 242.441406 99.042969 242.765625 99.375 C 243.085938 99.703125 243.335938 100.082031 243.507812 100.511719 C 243.675781 100.941406 243.761719 101.386719 243.753906 101.847656 C 243.746094 103.300781 243.859375 104.746094 244.101562 106.179688 C 244.339844 107.613281 244.699219 109.015625 245.179688 110.386719 C 245.65625 111.761719 246.25 113.082031 246.957031 114.351562 C 247.664062 115.621094 248.476562 116.824219 249.386719 117.953125 C 250.300781 119.085938 251.304688 120.128906 252.394531 121.089844 C 253.488281 122.046875 254.65625 122.90625 255.894531 123.664062 C 257.136719 124.425781 258.429688 125.070312 259.78125 125.609375 C 261.132812 126.144531 262.519531 126.5625 263.941406 126.859375 C 264.042969 126.878906 264.136719 126.898438 264.238281 126.917969 C 265.65625 127.171875 267.085938 127.308594 268.527344 127.316406 C 269.96875 127.328125 271.402344 127.214844 272.824219 126.980469 C 274.25 126.742188 275.640625 126.386719 277.003906 125.914062 C 278.363281 125.4375 279.675781 124.851562 280.9375 124.152344 C 282.195312 123.449219 283.386719 122.648438 284.511719 121.742188 C 285.632812 120.835938 286.671875 119.84375 287.621094 118.761719 C 288.574219 117.675781 289.425781 116.519531 290.179688 115.289062 C 290.933594 114.0625 291.578125 112.777344 292.109375 111.4375 C 292.28125 111.007812 292.527344 110.625 292.847656 110.292969 C 293.171875 109.964844 293.542969 109.707031 293.96875 109.523438 C 294.390625 109.339844 294.835938 109.246094 295.296875 109.238281 C 295.757812 109.234375 296.203125 109.316406 296.632812 109.488281 C 297.0625 109.65625 297.441406 109.902344 297.773438 110.226562 C 298.105469 110.546875 298.363281 110.921875 298.542969 111.347656 C 298.726562 111.769531 298.820312 112.214844 298.828125 112.675781 C 298.835938 113.136719 298.75 113.582031 298.582031 114.011719 C 298.238281 114.867188 297.863281 115.703125 297.453125 116.527344 C 297.039062 117.347656 296.59375 118.152344 296.113281 118.933594 C 295.632812 119.71875 295.117188 120.480469 294.574219 121.21875 C 294.027344 121.957031 293.449219 122.671875 292.84375 123.363281 C 292.234375 124.054688 291.597656 124.714844 290.933594 125.351562 C 290.269531 125.988281 289.582031 126.59375 288.863281 127.167969 C 288.148438 127.746094 287.40625 128.289062 286.644531 128.804688 C 285.882812 129.316406 285.097656 129.796875 284.292969 130.242188 C 283.492188 130.6875 282.667969 131.097656 281.828125 131.472656 C 280.992188 131.847656 280.136719 132.1875 279.269531 132.488281 C 278.398438 132.789062 277.519531 133.054688 276.628906 133.28125 C 275.738281 133.507812 274.839844 133.695312 273.933594 133.84375 C 273.027344 133.996094 272.113281 134.105469 271.199219 134.175781 C 270.28125 134.25 269.363281 134.28125 268.445312 134.273438 C 267.523438 134.265625 266.605469 134.21875 265.691406 134.132812 C 264.777344 134.046875 263.867188 133.921875 262.960938 133.757812 Z M 262.566406 133.6875 " fill-opacity="1" fill-rule="nonzero"/></g></g></g><g clip-path="url(#3ae3ea60b9)"><g clip-path="url(#bb2316747f)"><path fill="#754cff" d="M 256.324219 92.695312 L 265.570312 92.695312 L 265.570312 101.941406 L 256.324219 101.941406 Z M 256.324219 92.695312 " fill-opacity="1" fill-rule="nonzero"/></g></g><g clip-path="url(#e50b4ee281)"><g clip-path="url(#1ab3c2e305)"><path fill="#754cff" d="M 275.261719 97.316406 L 284.507812 97.316406 L 284.507812 106.5625 L 275.261719 106.5625 Z M 275.261719 97.316406 " fill-opacity="1" fill-rule="nonzero"/></g></g></svg>